/* XPM */
static char *result[] = {
/* columns rows colors chars-per-pixel */
"32 32 13 1 ",
"  c #5F7A79",
". c #90625D",
"X c #8A4A70",
"o c #A35B70",
"O c #AF6776",
"+ c #BD757E",
"@ c #6E967C",
"# c #B68962",
"$ c #C49A6C",
"% c #82A884",
"& c #D99A9A",
"* c #E8B5AC",
"= c #9CDB43",
/* pixels */
"================================",
"================================",
"================================",
"================================",
"================================",
"================================",
"================================",
"================================",
"================================",
"=================   ============",
"================ %% ============",
"=============== @@% ============",
"==============OO oo=============",
"=============O*&O++X============",
"=============o&++++X============",
"==============o+O+X=============",
"===============XXX==============",
"================================",
"================================",
"================================"
"================================",
"================================",
"================================",
"================================",
"================================",
"================================",
"================================",
"================================",
"================================",
"================================",
"================================",
"================================",
};
