/* XPM */
static char *result[] = {
/* columns rows colors chars-per-pixel */
"32 32 7 1 ",
"  c #161616",
". c #281E1F",
"X c #3B1725",
"o c #5B3138",
"O c #6A3D44",
"+ c #6D758D",
"@ c None",
/* pixels */
"@@@@@@@@@@@@@@@@@@@@@@@@@@@@@@@@",
"@@@@@@@@@@@@@@@@@@@@@@@@@@@@@@@@",
"@@@@@@@@@@@@@@@@@@@@@@@@@@@@@@@@",
"@@@@@@@@@@@@@@@@@@@@@@@@@@@@@@@@",
"@@@@@@@@@@@@@@XXXXX@@@@@@@@@@@@@",
"@@@@@@@@@@@@@XOOXOOX@@@@@@@@@@@@",
"@@@@@@@@@@@@XOooXooOX@@@@@@@@@@@",
"@@@@@@@@@@@XOoooXoooOX@@@@@@@@@@",
"@@@@@@@@@@XOooooXooooOX@@@@@@@@@",
"@@@@@@@@@XOoooooXoooooOX@@@@@@@@",
"@@@@@@@@@@XXXXXXXXXXXXX@@@@@@@@@",
"@@@@@@@@@@.ooooooooooo.@@@@@@@@@",
"@@@@@@@@@@.ooo++ooo++o.@@@@@@@@@",
"@@@@@@@@@@.ooooooooooo.@@@@@@@@@",
"@@@@@@@@@@.oooooXXoooo.@@@@@@@@@",
"@@@@@@@@@@.ooooX  Xooo.@@@@@@@@@",
"@@@@@@@@@@.ooooX  Xooo.@@@@@@@@@",
"@@@@@@@@@@@...........@@@@@@@@@@",
"@@@@@@@@@@@@@@@@@@@@@@@@@@@@@@@@",
"@@@@@@@@@@@@@@@@@@@@@@@@@@@@@@@@",
"@@@@@@@@@@@@@@@@@@@@@@@@@@@@@@@@",
"@@@@@@@@@@@@@@@@@@@@@@@@@@@@@@@@",
"@@@@@@@@@@@@@@@@@@@@@@@@@@@@@@@@",
"@@@@@@@@@@@@@@@@@@@@@@@@@@@@@@@@",
"@@@@@@@@@@@@@@@@@@@@@@@@@@@@@@@@",
"@@@@@@@@@@@@@@@@@@@@@@@@@@@@@@@@",
"@@@@@@@@@@@@@@@@@@@@@@@@@@@@@@@@",
"@@@@@@@@@@@@@@@@@@@@@@@@@@@@@@@@",
"@@@@@@@@@@@@@@@@@@@@@@@@@@@@@@@@",
"@@@@@@@@@@@@@@@@@@@@@@@@@@@@@@@@",
"@@@@@@@@@@@@@@@@@@@@@@@@@@@@@@@@",
"@@@@@@@@@@@@@@@@@@@@@@@@@@@@@@@@"
};
