/* XPM */
static char *result[] = {
/* columns rows colors chars-per-pixel */
"32 32 12 1 ",
"  c #9CDB43",
". c #D6F264",
"X c #3B1725",
"o c #6A3D44",
"O c #5B3138",
"+ c #80AE3A",
"@ c #281E1F",
"# c #6D758D",
"$ c #ADC053",
"% c #161616",
"& c #6A8D33",
"* c black",
/* pixels */
"                                ",
"         .                      ",
"        .                       ",
"               ..               ",
"                                ",
"                                ",
" .  .                           ",
"  .                             ",
"  ..           XXXXX            ",
"           .  XooXooX  ..       ",
"           ..XoOOXOOoX. .       ",
"    .       XoOOOXOOOoX         ",
"           XoOOOOXOOOOoX        ",
"          XoOOOOOXOOOOOoX       ",
"          +XXXXXXXXXXXXX+       ",
"          +@OOOOOOOOOOO@+       ",
"          +@OOO##OOO##O@+       ",
"          +@OOOOOOOOOOO@$.      ",
"..        +@OOOOOXXOOOO@+       ",
"          +@OOOOX%%XOOO@+       ",
"          &@OOOOX%%XOOO@&       ",
"           &@@@@@@@@@@@&        ",
"            &&&&&&&&&&&         ",
"             &&&&&&&&&.         ",
"             .                  ",
"    . .       .                 ",
"     .       .                  ",
"                                ",
"                                ",
"                     .          ",
"    .               ...         ",
"                                "
};
