/* XPM */
static char *result[] = {
/* columns rows colors chars-per-pixel */
"32 32 8 1 ",
"  c #2F2F2E",
". c #3B3B39",
"X c #4F4F4E",
"o c #9D5021",
"O c #D67941",
"+ c gray72",
"@ c white",
"# c None",
/* pixels */
"################################",
"################################",
"################################",
"################################",
"################################",
"################################",
"################################",
"################################",
"################################",
"############  ##################",
"#######   ## o #################",
"####### Oo # @o ################",
"########      o ####### ########",
"######## OOOOOo ###### + #######",
"########  ooo o ###### @+ ######",
"####### OO  OOoo ##### @o ######",
"####### @@@@@@++ #### OOo ######",
"######## @@@@@+      OOOo ######",
"#########      ooooo oOOo ######",
"########## @@OOOOoooo oo #######",
"##########  ++oOOOooo   ########",
"########## o   O    o ##########",
"########## X # X  . . ##########",
"##########  ##  ## #  ##########",
"################################",
"################################",
"################################",
"################################",
"################################",
"################################",
"################################",
"################################"
};
