/* XPM */
static char *result[] = {
/* columns rows colors chars-per-pixel */
"32 32 9 1 ",
"  c #2F2F2E",
". c #3B3B39",
"X c #4F4F4E",
"o c #9D5021",
"O c #D67941",
"+ c #9CDB43",
"@ c #D6F264",
"# c gray72",
"$ c white",
/* pixels */
"++++++++++++++++++++++++++++++++",
"+++++++++@++++++++++++++++++++++",
"++++++++@+++++++++++++++++++++++",
"+++++++++++++++@@+++++++++++++++",
"++++++++++++++++++++++++++++++++",
"++++++++++++++++++++++++++++++++",
"+@++@+++++++++++++++++++++++++++",
"++@+++++++++++++++++++++++++++++",
"++@@++++++++++++++++++++++++++++",
"+++++++++++@++++++  +++@@+++++++",
"+++++++++++@@++++ o ++   +++++++",
"++++@+++++++++++ o$ + oO +++++++",
"++++++++ +++++++ o      ++++++++",
"+++++++ # ++++++ oOOOOO ++++++++",
"++++++ #$ ++++++ o ooo  ++++++++",
"++++++ o$ +++++ ooOO  OO +++++++",
"++++++ oOO ++++ ##$$$$$$ +++++++",
"++++++ oOOO      #$$$$$ @@++++++",
"@@++++ oOOo ooooo      +++++++++",
"+++++++ oo ooooOOOO$$ ++++++++++",
"++++++++   oooOOOo##  ++++++++++",
"++++++++++ o    O   o ++++++++++",
"++++++++++ . .  X + X ++++++++++",
"++++++++++  + ++  ++  @+++++++++",
"+++++++++++++@++++++++++++++++++",
"++++@+@+++++++@+++++++++++++++++",
"+++++@+++++++@++++++++++++++++++",
"++++++++++++++++++++++++++++++++",
"++++++++++++++++++++++++++++++++",
"+++++++++++++++++++++@++++++++++",
"++++@+++++++++++++++@@@+++++++++",
"++++++++++++++++++++++++++++++++"
};
