/* XPM */
static char *result[] = {
/* columns rows colors chars-per-pixel */
"32 32 3 1 ",
"  c #9E7C59",
". c #B08A63",
"X c #C2986D",
/* pixels */
".    .XX.  ...    ..   .....   .",
"X    .XX. .XX.   .  ..      ... ",
"X.... ..  XXXX. .X .XX.... .XX. ",
".  X.   . .XXXX .X XXXXXX. .XX. ",
" ..XX. .X. .XXX XX .XXXXXX .X.. ",
" .XXX. .X. .XXX XX .XXXXXX .X.. ",
" .XX.   . .XXXX .X XXXXXX. .XX. ",
" ..X. ..  XXXX. .X .XX.... .XX. ",
"   . .XX. .XX.   .  ..      ... ",
"     .XX.  ...    ..   .....   .",
"....  ..      .. .XX.. .XXX. .XX",
".XX..   .... .X. .XXXX. XXXX ...",
".XXX. ..XXX. XXX. .XXX. XXX.    ",
" .... .XXXXX .X..  .XX. ....   .",
"      .XXXXX. .     .. .    .  .",
" ..XX .XXXXX.  ..     .XX. .X. .",
" .XXXX ...... .XX..   .... XXX. ",
" .XX..       .XXXXX.      .X... ",
" .XX    ... .XX.XXX. ..... .    ",
".XXX..  .X. ..XX..X. .XXXX. ....",
".XXXXX. .X. .XXXX.. XXXXXX. .X. ",
" .X.XX. ... ..XXX. ..XXXXX. ... ",
"    X.     . ..X..   .XXXX.     ",
".XXX. .. ..X. .... .. .... .XXX.",
" ..X .X. .XXX. .. .XX.     .....",
"     .. .XXXXX.  .XXX.          ",
" .XX    .XXXX.. .XXXXX.  ..... .",
".XXX.... .X..   .XXXXX. .XXXX. .",
"XXXX.XXX. .  ... .XXXXX. .XXXX. ",
"XXX.XXXXX. ..XXX. .XXXX.  .XX. .",
".X. .XXXXX .XXXXX. .... .. .. .X",
"   . .X... XXXXXX      .XX.  .XX"
};
