/* XPM */
static char *result[] = {
/* columns rows colors chars-per-pixel */
"32 32 11 1 ",
"  c #122020",
". c #24523B",
"X c #1A7A3E",
"o c #14A02E",
"O c #59C135",
"+ c #72C135",
"@ c #91E550",
"# c #F5A097",
"$ c #FAD6B8",
"% c #FEF3C0",
"& c None",
/* pixels */
"&&&&&&&&&&&&&&&&&&&&&&&&&&&&&&&&",
"&&&&&&&&&&&&&&&&&&&&&&&&&&&&&&&&",
"&&&&&&&&&&&& OO   &&&  oO&&&&&&&",
"&&&&&&&  &   %o%o@@& OOOO &&&&&&",
"&&&&&& O@  o .%.oO  oO@@ &&   &&",
"&&&&&&& o@ooOo.OooOoooOO  OOO &&",
"&&&&&& oOooOOOoOOOoOOOOOoOooOO &",
"&&&&& OoOOOOOoOOoooOO$O$OOOo@ &&",
"&&&&%@+OoOOOOO@O@OoOOX%XOoO@ . &",
"&&&  %OOoo@$o$o@OoOOooXO@@OO%.% ",
"&& oo OOOOOX%XoOOoOOOooO@OOX.% O",
"&&& XoOOOO@$.$OXXOOOOoooOXoXo o ",
"&&&& oooOOX.o.OXooOoOOOOOoo.@O &",
"&&  OOOOOoXOoooOOOOoooOO@%..oX &",
"&&@OooXOoXOOooo@ooooXXOo% ...   ",
"&&ooooXXoOOOOo@O@oooXOoX %.ooo. ",
"&& X.XXXoXXoOoOoOoooOooXX oOXX  ",
"&& X.%XXoXXoOo$o$oooOooXX.oOXX  ",
" &  X %XoXXooX $ ooOOooXX.oXXX. ",
" & XX. XX  Xo.. XoooXX  ..XXXX.X",
"&&& . XX.X  X..XXo..  .ooX$. . .",
"&& .X.XXooo..Xo..o.....Xo# #..  ",
"&& . ...  oooooX.XXoo...o   .   ",
"&&&  ....  .o $oX.X..o.Xoo  .  &",
"&&&&  X  .   # #... oo.X.  .. &&",
"&&&&& ..X. X... XX    X.....  &&",
"&&&&& .X.....X.X X...   ..   &&&",
"&&&&&& .  .. .X  ..  ....   &&&&",
"&&&&&&&      .X........   &&&&&&",
"&&&&&&&&&&      .         &&&&&&",
"&&&&&&&&&&&&             &&&&&&&",
"&&&&&&&&&&&&&&&&&&&&&&&&&&&&&&&&"
};
