/* XPM */
static char *result[] = {
/* columns rows colors chars-per-pixel */
"32 32 16 1 ",
"  c #122020",
". c #24523B",
"X c #1A7A3E",
"o c #14A02E",
"O c #6C9B37",
"+ c #739A34",
"@ c #73A439",
"# c #59C135",
"$ c #72C135",
"% c #9CB550",
"& c #9CDB43",
"* c #91E550",
"= c #D6F264",
"- c #F5A097",
"; c #FAD6B8",
": c #FEF3C0",
/* pixels */
"&&&&&&&&&&&&&&&&&&&&&&&&+&&&++++",
"&&&&&&&&&=&&&&&&&&&&&&&&&&&&&&&&",
"&&&&&&&&=&&& ##   &&&  o#&&&&&&&",
"&&&&&&&  &   :o:o**& #### &&&&&&",
"&&&&&& #*  o .:.o#  o#** &&   &&",
"&&&&&&& o*oo#o.#oo#ooo##  ### &&",
"&=&&=& o#oo###o###o#####o#oo## &",
"&&=&& #o#####o##ooo##;#;###o* &&",
"&&==:*$#o#####*#*#o##X:X#o#* . &",
"&&&  :##oo*;o;o*#o##ooX#**##:.: ",
"&& oo #####X:Xo##o###oo#*##X.: #",
"&&& Xo####*;.;#XX####ooo#XoXo o ",
"&&&& ooo##X.o.#Xoo#o#####oo.*# &",
"&&  #####oX#ooo####ooo##*:..oX &",
"&&*#ooX#oX##ooo*ooooXX#o: ...   ",
"&&ooooXXo####o*#*oooX#oX :.ooo. ",
"&& X.XXXoXXo#o#o#ooo#ooXX o#XX  ",
"&& X.:XXoXXo#o;o;ooo#ooXX.o#XX  ",
" =  X :XoXXooX ; oo##ooXX.oXXX. ",
" & XX. XX  Xo.. XoooXX  ..XXXX.X",
"&&& . XX.X  X..XXo..  .ooX;. . .",
"&& .X.XXooo..Xo..o.....Xo- -..  ",
"&& . ...  oooooX.XXoo...o   .   ",
"&&&  ....  .o ;oX.X..o.Xoo  .  &",
"&&&&  X  .   - -... oo.X.  .. &&",
"&&&&= ..X. X... XX    X.....  &&",
"&&&&& .X.....X.X X...   ..   &&&",
"&&&&&& .  .. .X  ..  ....   &&&&",
"&&&&&&@      .X........   @@&&&&",
"&&&&&@@@@@      .         O@@&&&",
"&&&&%@@@@@@@             @@@@@&&",
"&&&&&@@@@@@@@@@@@@@@@@@@@@@OO@@&"
};
